<svg width="35" height="16" viewBox="0 0 35 16" fill="none" xmlns="http://www.w3.org/2000/svg">
<rect width="35" height="16" rx="5" fill="#FF3042"/>
<path d="M8.08 10.15C8.42 10.15 8.68667 10.09 8.88 9.97002C9.07333 9.84336 9.17 9.65002 9.17 9.39002V9.37002C9.17 9.13669 9.08 8.95336 8.9 8.82002C8.72 8.68002 8.43 8.61002 8.03 8.61002H6.25V10.15H8.08ZM7.67 7.33002C8.01 7.33002 8.28 7.27336 8.48 7.16002C8.68 7.04002 8.78 6.85002 8.78 6.59002V6.57002C8.78 6.33669 8.69333 6.16002 8.52 6.04002C8.34667 5.91336 8.09667 5.85002 7.77 5.85002H6.25V7.33002H7.67ZM4.75 4.50002H8C8.80667 4.50002 9.41667 4.70669 9.83 5.12002C10.15 5.44002 10.31 5.83669 10.31 6.31002V6.33002C10.31 6.53002 10.2833 6.70669 10.23 6.86002C10.1833 7.01336 10.1167 7.15336 10.03 7.28002C9.95 7.40002 9.85333 7.50669 9.74 7.60002C9.63333 7.69336 9.51667 7.77336 9.39 7.84002C9.79667 7.99336 10.1167 8.20336 10.35 8.47002C10.5833 8.73002 10.7 9.09336 10.7 9.56002V9.58002C10.7 9.90002 10.6367 10.18 10.51 10.42C10.39 10.66 10.2133 10.86 9.98 11.02C9.75333 11.18 9.47667 11.3 9.15 11.38C8.83 11.46 8.47333 11.5 8.08 11.5H4.75V4.50002Z" fill="white"/>
<path d="M11.9668 4.50002H17.2468V5.87002H13.4968V7.29002H16.7968V8.66002H13.4968V10.13H17.2968V11.5H11.9668V4.50002Z" fill="white"/>
<path d="M21.156 11.6C20.6227 11.6 20.0993 11.51 19.586 11.33C19.0727 11.1434 18.606 10.86 18.186 10.48L19.096 9.39002C19.416 9.65002 19.7427 9.85669 20.076 10.01C20.416 10.1634 20.786 10.24 21.186 10.24C21.506 10.24 21.7527 10.1834 21.926 10.07C22.106 9.95002 22.196 9.78669 22.196 9.58002V9.56002C22.196 9.46002 22.176 9.37336 22.136 9.30002C22.1027 9.22002 22.0327 9.14669 21.926 9.08002C21.826 9.01336 21.6827 8.94669 21.496 8.88002C21.316 8.81336 21.0793 8.74336 20.786 8.67002C20.4327 8.58336 20.1127 8.48669 19.826 8.38002C19.5393 8.27336 19.296 8.14336 19.096 7.99002C18.896 7.83002 18.7393 7.63336 18.626 7.40002C18.5193 7.16669 18.466 6.87669 18.466 6.53002V6.51002C18.466 6.19002 18.526 5.90336 18.646 5.65002C18.766 5.39002 18.9327 5.16669 19.146 4.98002C19.366 4.79336 19.626 4.65002 19.926 4.55002C20.226 4.45002 20.556 4.40002 20.916 4.40002C21.4293 4.40002 21.8993 4.47669 22.326 4.63002C22.7593 4.78336 23.156 5.00336 23.516 5.29002L22.716 6.45002C22.4027 6.23669 22.096 6.07002 21.796 5.95002C21.496 5.82336 21.196 5.76002 20.896 5.76002C20.596 5.76002 20.3693 5.82002 20.216 5.94002C20.0693 6.05336 19.996 6.19669 19.996 6.37002V6.39002C19.996 6.50336 20.016 6.60336 20.056 6.69002C20.1027 6.77002 20.1827 6.84336 20.296 6.91002C20.4093 6.97669 20.5627 7.04002 20.756 7.10002C20.956 7.16002 21.206 7.23002 21.506 7.31002C21.8593 7.40336 22.1727 7.51002 22.446 7.63002C22.726 7.74336 22.9593 7.88336 23.146 8.05002C23.3393 8.21002 23.4827 8.40002 23.576 8.62002C23.676 8.84002 23.726 9.10336 23.726 9.41002V9.43002C23.726 9.77669 23.6627 10.0867 23.536 10.36C23.4093 10.6267 23.2327 10.8534 23.006 11.04C22.7793 11.22 22.5093 11.36 22.196 11.46C21.8827 11.5534 21.536 11.6 21.156 11.6Z" fill="white"/>
<path d="M26.6925 5.92002H24.5625V4.50002H30.3625V5.92002H28.2325V11.5H26.6925V5.92002Z" fill="white"/>
</svg>
