<svg width="24" height="24" viewBox="0 0 24 24" fill="none" xmlns="http://www.w3.org/2000/svg">
<path fill-rule="evenodd" clip-rule="evenodd" d="M18.3631 5.63617C18.7535 6.02665 18.7535 6.65969 18.3631 7.05017L13.414 12L18.3631 16.9499C18.7535 17.3404 18.7535 17.9734 18.3631 18.3639C17.9726 18.7544 17.3394 18.7544 16.9489 18.3639L12 13.4142L7.0511 18.3639C6.66059 18.7544 6.02739 18.7544 5.63689 18.3639C5.24646 17.9734 5.24646 17.3404 5.63689 16.9499L10.586 12L5.63689 7.05017C5.24646 6.65969 5.24646 6.02665 5.63689 5.63617C6.02739 5.2456 6.66059 5.2456 7.0511 5.63617L12 10.5858L16.9489 5.63617C17.3394 5.2456 17.9726 5.2456 18.3631 5.63617Z" fill="white"/>
</svg>
